<?xml version="1.0" encoding="UTF-8" standalone="no"?>
<!-- Generator: Adobe Illustrator 15.0.0, SVG Export Plug-In . SVG Version: 6.00 Build 0)  -->

<svg
   xmlns:dc="http://purl.org/dc/elements/1.1/"
   xmlns:cc="http://creativecommons.org/ns#"
   xmlns:rdf="http://www.w3.org/1999/02/22-rdf-syntax-ns#"
   xmlns:svg="http://www.w3.org/2000/svg"
   xmlns="http://www.w3.org/2000/svg"
   xmlns:sodipodi="http://sodipodi.sourceforge.net/DTD/sodipodi-0.dtd"
   xmlns:inkscape="http://www.inkscape.org/namespaces/inkscape"
   version="1.1"
   id="Layer_1"
   inkscape:version="0.48.4 r9939"
   sodipodi:docname="shape_flower.svg"
   x="0px"
   y="0px"
   width="58px"
   height="58px"
   viewBox="0 0 58 58"
   enable-background="new 0 0 58 58"
   xml:space="preserve"><metadata
   id="metadata3064"><rdf:RDF><cc:Work
       rdf:about=""><dc:format>image/svg+xml</dc:format><dc:type
         rdf:resource="http://purl.org/dc/dcmitype/StillImage" /><dc:title></dc:title></cc:Work></rdf:RDF></metadata><defs
   id="defs3062" /><sodipodi:namedview
   pagecolor="#ffffff"
   bordercolor="#666666"
   borderopacity="1"
   objecttolerance="10"
   gridtolerance="10"
   guidetolerance="10"
   inkscape:pageopacity="0"
   inkscape:pageshadow="2"
   inkscape:window-width="1366"
   inkscape:window-height="705"
   id="namedview3060"
   showgrid="false"
   inkscape:zoom="3.93"
   inkscape:cx="48"
   inkscape:cy="48"
   inkscape:window-x="-8"
   inkscape:window-y="-8"
   inkscape:window-maximized="1"
   inkscape:current-layer="Layer_1" />

<rect
   id="rect3"
   display="none"
   fill="#FFFFFF"
   stroke="#000000"
   width="96"
   height="96" />
<path fill="#FC4100" d="M55.9,14.6c-1.6-5.1-5.4-9.3-10.2-11.3c0,0,0,0,0,0C45.3,3.2,45,3,44.6,2.9C39.7,1,34.4,0,28.9,0
		c-5.1,0-10,0.9-14.6,2.5c-0.2,0.1-0.3,0.1-0.5,0.2c-0.5,0.2-1,0.4-1.6,0.6C7.5,5.4,3.9,9.4,2.4,14.4l0,0C0.8,19,0,23.9,0,28.9
		c0,4.7,0.7,9.2,2,13.5c0.3,1.1,0.6,2.2,1.1,3.3c1.9,4.1,5.3,7.4,9.4,9.2l0,0c5.1,2,10.6,3.2,16.3,3.2c5.4,0,10.6-1,15.4-2.8
		c0.2-0.1,0.5-0.2,0.7-0.3c0.2-0.1,0.3-0.1,0.5-0.2c4.2-1.8,7.6-5.3,9.4-9.5c0,0,0,0,0-0.1c0.2-0.5,0.4-1.1,0.6-1.7c0,0,0,0,0,0
		c1.6-4.7,2.4-9.7,2.4-14.9C58,23.7,57.3,19,55.9,14.6z"/>
   </svg>